<!-- Created with Inkscape (http://www.inkscape.org/) -->
<svg xmlns:cc="http://creativecommons.org/ns#" xmlns="http://www.w3.org/2000/svg" xmlns:inkscape="http://www.inkscape.org/namespaces/inkscape" xmlns:rdf="http://www.w3.org/1999/02/22-rdf-syntax-ns#" xmlns:svg="http://www.w3.org/2000/svg" xmlns:sodipodi="http://sodipodi.sourceforge.net/DTD/sodipodi-0.dtd" xmlns:dc="http://purl.org/dc/elements/1.1/" width="17.566746mm" height="17.766241mm" viewBox="0 0 62.244375 62.951248" id="svg4512" version="1.1" inkscape:version="0.91 r13725" sodipodi:docname="arche-short.svg">
  <defs id="defs4514"/>
  <g inkscape:label="Ebene 1" inkscape:groupmode="layer" id="layer1" transform="translate(-180.48495,-276.24374)">
    <polygon style="fill:#88dbdf" points="40.399,18.884 19.443,7.494 0,18.659 33.22,37.57 59.54,23.254 59.54,45.031 33.22,59.346 6.901,45.031 6.901,38.042 33.22,52.356 52.694,41.765 52.694,33.963 33.22,44.555 0.047,26.146 0.047,49.105 33.22,67.148 66.394,49.105 66.394,18.043 33.221,0 26.044,3.904 53.414,18.785 33.22,29.768 13.027,18.785 19.443,15.295 33.22,22.789 33.226,22.785 " id="polygon17" transform="matrix(0.93749995,0,0,0.93750006,180.48495,276.24374)"/>
  </g>
</svg>